<mxfile host="app.diagrams.net" modified="2021-09-24T15:23:55.075Z" agent="5.0 (X11)" etag="pUU3gsY68QHADgTj62DV" version="15.3.1" type="github">
  <diagram id="jGv3KRdHRO9ItCqaX64U" name="Page-1">
    <mxGraphModel dx="2302" dy="1134" grid="1" gridSize="10" guides="1" tooltips="1" connect="1" arrows="1" fold="1" page="1" pageScale="1" pageWidth="1700" pageHeight="1100" math="0" shadow="0">
      <root>
        <mxCell id="QeTs8Otb-hYSfhYipXKW-0" />
        <mxCell id="QeTs8Otb-hYSfhYipXKW-1" parent="QeTs8Otb-hYSfhYipXKW-0" />
        <mxCell id="zljSf0HPq7ISTMpLtNXf-15" value="" style="rounded=0;whiteSpace=wrap;html=1;" vertex="1" parent="QeTs8Otb-hYSfhYipXKW-1">
          <mxGeometry x="40" y="40" width="1560" height="320" as="geometry" />
        </mxCell>
        <mxCell id="zljSf0HPq7ISTMpLtNXf-16" value="Commits" style="rounded=0;whiteSpace=wrap;html=1;" vertex="1" parent="QeTs8Otb-hYSfhYipXKW-1">
          <mxGeometry x="40" y="40" width="100" height="320" as="geometry" />
        </mxCell>
        <mxCell id="zljSf0HPq7ISTMpLtNXf-26" value="" style="rounded=0;whiteSpace=wrap;html=1;" vertex="1" parent="QeTs8Otb-hYSfhYipXKW-1">
          <mxGeometry x="40" y="720" width="1560" height="320" as="geometry" />
        </mxCell>
        <mxCell id="zljSf0HPq7ISTMpLtNXf-27" value="" style="rounded=0;whiteSpace=wrap;html=1;" vertex="1" parent="QeTs8Otb-hYSfhYipXKW-1">
          <mxGeometry x="40" y="380" width="1560" height="320" as="geometry" />
        </mxCell>
        <mxCell id="zljSf0HPq7ISTMpLtNXf-32" value="Development" style="rounded=0;whiteSpace=wrap;html=1;" vertex="1" parent="QeTs8Otb-hYSfhYipXKW-1">
          <mxGeometry x="40" y="380" width="100" height="320" as="geometry" />
        </mxCell>
        <mxCell id="zljSf0HPq7ISTMpLtNXf-33" value="Production" style="rounded=0;whiteSpace=wrap;html=1;" vertex="1" parent="QeTs8Otb-hYSfhYipXKW-1">
          <mxGeometry x="40" y="720" width="100" height="320" as="geometry" />
        </mxCell>
        <mxCell id="zljSf0HPq7ISTMpLtNXf-34" value="Integration Tests" style="rounded=0;whiteSpace=wrap;html=1;" vertex="1" parent="QeTs8Otb-hYSfhYipXKW-1">
          <mxGeometry x="400" y="520" width="200" height="40" as="geometry" />
        </mxCell>
        <mxCell id="zljSf0HPq7ISTMpLtNXf-35" value="Unit Tests (Pytest)" style="rounded=0;whiteSpace=wrap;html=1;" vertex="1" parent="QeTs8Otb-hYSfhYipXKW-1">
          <mxGeometry x="180" y="150" width="200" height="40" as="geometry" />
        </mxCell>
        <mxCell id="zljSf0HPq7ISTMpLtNXf-36" value="CodeQL" style="rounded=0;whiteSpace=wrap;html=1;" vertex="1" parent="QeTs8Otb-hYSfhYipXKW-1">
          <mxGeometry x="190" y="890" width="200" height="40" as="geometry" />
        </mxCell>
        <mxCell id="zljSf0HPq7ISTMpLtNXf-37" value="Build Docker Image" style="rounded=0;whiteSpace=wrap;html=1;" vertex="1" parent="QeTs8Otb-hYSfhYipXKW-1">
          <mxGeometry x="180" y="520" width="200" height="40" as="geometry" />
        </mxCell>
        <mxCell id="zljSf0HPq7ISTMpLtNXf-38" value="Push Container Registry" style="rounded=0;whiteSpace=wrap;html=1;" vertex="1" parent="QeTs8Otb-hYSfhYipXKW-1">
          <mxGeometry x="620" y="520" width="200" height="40" as="geometry" />
        </mxCell>
        <mxCell id="zljSf0HPq7ISTMpLtNXf-39" value="Synk Scanning" style="rounded=0;whiteSpace=wrap;html=1;" vertex="1" parent="QeTs8Otb-hYSfhYipXKW-1">
          <mxGeometry x="190" y="830" width="200" height="40" as="geometry" />
        </mxCell>
        <mxCell id="zljSf0HPq7ISTMpLtNXf-40" value="Component Testing" style="rounded=0;whiteSpace=wrap;html=1;" vertex="1" parent="QeTs8Otb-hYSfhYipXKW-1">
          <mxGeometry x="180" y="210" width="200" height="40" as="geometry" />
        </mxCell>
      </root>
    </mxGraphModel>
  </diagram>
</mxfile>
